<svg id="Group_206" data-name="Group 206" xmlns="http://www.w3.org/2000/svg" xmlns:xlink="http://www.w3.org/1999/xlink" width="20.319" height="15.391" viewBox="0 0 20.319 15.391">
  <defs>
    <clipPath id="clip-path">
      <rect id="Rectangle_782" data-name="Rectangle 782" width="20.319" height="15.391" transform="translate(0 0)" fill="#c3361c"/>
    </clipPath>
  </defs>
  <g id="Group_205" data-name="Group 205" transform="translate(0 0)" clip-path="url(#clip-path)">
    <path id="Path_297" data-name="Path 297" d="M10.161.012C13.242.012,16.322.026,19.4,0c.667-.005.92.184.916.89q-.04,6.806,0,13.612c0,.708-.252.891-.917.889q-9.242-.027-18.484,0c-.665,0-.922-.182-.918-.89Q.039,7.7,0,.89C0,.181.255,0,.919,0,4,.025,7.08.012,10.161.012M2.718,1.626c.183.216.252.308.332.389Q6.2,5.194,9.352,8.369c.678.681,1.041.668,1.744-.034q2.684-2.683,5.36-5.373c.416-.417.842-.824,1.366-1.337ZM2.675,13.47l.2.252H17.6L13.551,9.578c-.758-.775-.757-.776-1.536-.014a2.417,2.417,0,0,1-3.621.022c-.155-.149-.314-.3-.455-.457-.24-.276-.444-.27-.713-.01-1.509,1.458-3.032,2.9-4.55,4.351M1.593,2.769v9.569C3.066,10.944,4.622,9.466,6.185,8c.284-.267.217-.471-.033-.713C5.57,6.716,5.008,6.13,4.431,5.559,3.5,4.642,2.572,3.73,1.593,2.769m17.123,9.479V2.9C17.145,4.458,15.64,5.95,14.129,7.437a.32.32,0,0,0,0,.54c1.57,1.462,3.138,2.925,4.582,4.271" transform="translate(0 0)" fill="#c3361c"/>
  </g>
</svg>
