<svg id="Group_131" data-name="Group 131" xmlns="http://www.w3.org/2000/svg" xmlns:xlink="http://www.w3.org/1999/xlink" width="15.761" height="10.067" viewBox="0 0 15.761 10.067">
  <defs>
    <clipPath id="clip-path">
      <rect id="Rectangle_730" data-name="Rectangle 730" width="15.761" height="10.067" fill="#187fac"/>
    </clipPath>
  </defs>
  <g id="Group_130" data-name="Group 130" transform="translate(0 0)" clip-path="url(#clip-path)">
    <path id="Path_225" data-name="Path 225" d="M36.529,58.942a5.714,5.714,0,0,0,1.6-1.2" transform="translate(-27.873 -49.043)" fill="#187fac"/>
    <path id="Path_226" data-name="Path 226" d="M0,5.106v-2.3c0-.105-.017-.214.122-.215.92-.015,1.722-1.21,2.483-1.8A2.854,2.854,0,0,1,3.616.152,2.864,2.864,0,0,1,5.5.168a5.714,5.714,0,0,1,1.6,1.2,21.605,21.605,0,0,0,2.22,2.2,7.007,7.007,0,0,0,.94.6,1.335,1.335,0,0,0,.647.114c.058,0,.143,0,.187-.041a.863.863,0,0,1,1.467.428c.077.223.059.258-.143.258-2.552,0-4.289-.021-6.841-.02-.22,0-.441,0-.661,0-.113,0-.173-.039-.206-.187a1.013,1.013,0,0,0-.815-.8.927.927,0,0,0-.951.7,1.789,1.789,0,0,0-.066.406,1.79,1.79,0,0,0,.066.406.927.927,0,0,0,.951.7,1.013,1.013,0,0,0,.815-.8c.033-.148.093-.19.206-.187.22.006.441,0,.661,0,2.552,0,4.289-.021,6.841-.02.2,0,.22.035.143.258a.863.863,0,0,1-1.467.428c-.044-.044-.129-.039-.187-.041a1.335,1.335,0,0,0-.647.114,6.991,6.991,0,0,0-.94.6A21.605,21.605,0,0,0,7.1,8.7,5.714,5.714,0,0,1,5.5,9.9a2.864,2.864,0,0,1-1.885.017,2.854,2.854,0,0,1-1.011-.639c-.761-.591-1.562-1.785-2.483-1.8-.139,0-.122-.11-.122-.215Z" transform="translate(3.155 0)" fill="#187fac"/>
    <path id="Path_227" data-name="Path 227" d="M85.359,13.594v5.972h2.5c.4,0,.4,0,.4-.331V16.573c0-.927,0-1.853,0-2.782v-.008c0-.139-.045-.19-.217-.19Z" transform="translate(-85.359 -11.546)" fill="#187fac"/>
  </g>
</svg>
