<svg id="Group_208" data-name="Group 208" xmlns="http://www.w3.org/2000/svg" xmlns:xlink="http://www.w3.org/1999/xlink" width="20.319" height="20.293" viewBox="0 0 20.319 20.293">
  <defs>
    <clipPath id="clip-path">
      <rect id="Rectangle_783" data-name="Rectangle 783" width="20.319" height="20.293" fill="#c3361c"/>
    </clipPath>
  </defs>
  <g id="Group_207" data-name="Group 207" clip-path="url(#clip-path)">
    <path id="Path_298" data-name="Path 298" d="M0,4.291A2.622,2.622,0,0,1,1.109,2.176C2.041,1.523,2.985.883,3.947.274A1.641,1.641,0,0,1,6.325.91Q7.476,3.074,8.566,5.269a1.6,1.6,0,0,1-.44,2.051,8,8,0,0,1-.793.593.419.419,0,0,0-.132.666,13.592,13.592,0,0,0,4.545,4.542.426.426,0,0,0,.665-.151c.167-.245.344-.485.531-.716a1.652,1.652,0,0,1,2.167-.492q2.142,1.085,4.261,2.216a1.637,1.637,0,0,1,.643,2.446c-.592.934-1.2,1.856-1.846,2.756a2.669,2.669,0,0,1-2.551,1.1c-3.874-.29-6.967-2.2-9.734-4.737a19.241,19.241,0,0,1-5.2-7.618A12.646,12.646,0,0,1,0,4.291M15.827,18.8a1.266,1.266,0,0,0,1.292-.683c.48-.751.966-1.5,1.481-2.227.278-.392.186-.6-.219-.8-1.02-.506-2.025-1.043-3.038-1.564-1.095-.563-1.1-.561-1.829.416a1.676,1.676,0,0,1-2.355.511A14.6,14.6,0,0,1,5.807,9.076,1.639,1.639,0,0,1,6.25,6.867c.231-.187.47-.364.717-.529a.432.432,0,0,0,.183-.63Q6.135,3.752,5.124,1.794c-.148-.286-.329-.322-.6-.14-.819.558-1.647,1.1-2.469,1.654a1.176,1.176,0,0,0-.543,1.1A9.466,9.466,0,0,0,2.07,7.362a18.982,18.982,0,0,0,8.272,9.67,11.4,11.4,0,0,0,5.485,1.77" transform="translate(0 0)" fill="#c3361c"/>
  </g>
</svg>
