<svg id="Group_160" data-name="Group 160" xmlns="http://www.w3.org/2000/svg" xmlns:xlink="http://www.w3.org/1999/xlink" width="19.663" height="19.667" viewBox="0 0 19.663 19.667">
  <defs>
    <clipPath id="clip-path">
      <rect id="Rectangle_767" data-name="Rectangle 767" width="19.663" height="19.667" fill="none"/>
    </clipPath>
  </defs>
  <g id="Group_159" data-name="Group 159" clip-path="url(#clip-path)">
    <path id="Path_278" data-name="Path 278" d="M5.013,0h9.581c.02.021.047.017.073.02a2.289,2.289,0,0,1,1.947,2.245q0,1.774,0,3.549c0,.238,0,.235.237.237a5.24,5.24,0,0,1,.962.035,2.258,2.258,0,0,1,1.845,2.247c.007,1.349,0,2.7,0,4.047a4.365,4.365,0,0,1-.051.961,2.274,2.274,0,0,1-1.98,1.769c-.3.031-.6.009-.9.013-.089,0-.12.02-.119.115,0,.547,0,1.094,0,1.641a5.1,5.1,0,0,1-.034.9,2.275,2.275,0,0,1-2.264,1.883q-4.247,0-8.494,0a5.714,5.714,0,0,1-.831-.016A2.287,2.287,0,0,1,3,17.3c.006-.687,0-1.375,0-2.063,0-.091-.029-.111-.113-.109-.214.006-.429,0-.643,0A2.273,2.273,0,0,1,.128,13.61c-.058-.164-.084-.335-.128-.5V8.073c.007-.028.017-.056.021-.084A2.27,2.27,0,0,1,1.945,6.071a6.626,6.626,0,0,1,.919-.018c.108,0,.134-.029.134-.135,0-1.2-.012-2.4,0-3.6A2.244,2.244,0,0,1,4.367.187,3.192,3.192,0,0,1,5.013,0M9.8,11.34v0q-2.583,0-5.167,0c-.091,0-.12.023-.12.117,0,.61,0,1.22,0,1.829q0,2.04,0,4.08a.728.728,0,0,0,.78.776q4.5,0,8.992,0a.745.745,0,0,0,.806-.8c0-1.955,0-3.91,0-5.865,0-.114-.03-.141-.142-.141q-2.578.005-5.156,0m0-5.29h0q2.578,0,5.156,0c.1,0,.138-.021.138-.132,0-1.194,0-2.388,0-3.581a.753.753,0,0,0-.827-.826H5.29a.739.739,0,0,0-.771.767c0,1.216,0,2.432,0,3.648,0,.1.023.125.123.124q2.583,0,5.167,0m5.32,2.643a1.131,1.131,0,1,0,1.139-1.128,1.128,1.128,0,0,0-1.139,1.128" fill="#1a1818"/>
    <path id="Path_279" data-name="Path 279" d="M276.471,579.294c1.212,0,2.425,0,3.637,0,.108,0,.135.03.133.136-.007.425-.006.85,0,1.275,0,.09-.029.111-.114.111q-2.977,0-5.955,0c-.462,0-.924,0-1.386,0-.085,0-.114-.02-.113-.11q.008-.649,0-1.3c0-.092.025-.118.118-.118q1.841,0,3.681,0v0" transform="translate(-266.623 -566.442)" fill="#1a1818"/>
    <path id="Path_280" data-name="Path 280" d="M275.335,683.183c-.842,0-1.685,0-2.527,0-.09,0-.119-.021-.118-.115,0-.432,0-.865,0-1.3,0-.081.019-.107.1-.107q2.544,0,5.088,0c.088,0,.1.032.1.109,0,.436,0,.872,0,1.308,0,.087-.031.1-.109.1-.846,0-1.692,0-2.539,0" transform="translate(-266.641 -666.547)" fill="#1a1818"/>
  </g>
</svg>
