<svg xmlns="http://www.w3.org/2000/svg" xmlns:xlink="http://www.w3.org/1999/xlink" width="11.517" height="17.066" viewBox="0 0 11.517 17.066">
  <defs>
    <clipPath id="clip-path">
      <rect id="Rectangle_769" data-name="Rectangle 769" width="11.517" height="17.066" transform="translate(0 0)" fill="none"/>
    </clipPath>
  </defs>
  <g id="Group_164" data-name="Group 164" transform="translate(0 0)">
    <g id="Group_163" data-name="Group 163" transform="translate(0 0)" clip-path="url(#clip-path)">
      <path id="Path_282" data-name="Path 282" d="M5.786,11.591c-1.5,1.679-2.9,3.284-4.346,4.848a4.157,4.157,0,0,1-1.078.616,4.136,4.136,0,0,1-.327-1.1C.006,12.473.028,4.7,0,1.22-.006.367.325,0,1.178,0,4.291.012,7.4-.027,10.516.038a1.322,1.322,0,0,1,.947.873c.071,3.66.061,11.612.037,15.274,0,.294-.269.587-.413.881a2.783,2.783,0,0,1-.771-.427c-1.172-1.285-2.312-2.6-3.467-3.9-.319-.359-.652-.705-1.062-1.148M1.2,14.986c1.4-1.543,2.623-2.775,3.705-4.118.728-.9,1.181-.775,1.847.033,1.091,1.324,2.271,2.574,3.583,4.046V1.171H1.2Z" transform="translate(0 0.001)" fill="#1a1818"/>
    </g>
  </g>
</svg>
