<svg xmlns="http://www.w3.org/2000/svg" xmlns:xlink="http://www.w3.org/1999/xlink" width="17.032" height="18.305" viewBox="0 0 17.032 18.305">
  <defs>
    <clipPath id="clip-path">
      <rect id="Rectangle_770" data-name="Rectangle 770" width="17.032" height="18.305" transform="translate(0 0)" fill="none"/>
    </clipPath>
  </defs>
  <g id="Group_166" data-name="Group 166" transform="translate(0 0)">
    <g id="Group_165" data-name="Group 165" transform="translate(0 0)" clip-path="url(#clip-path)">
      <path id="Path_283" data-name="Path 283" d="M14.51.019h.02a.173.173,0,0,0,.118.06,2.9,2.9,0,0,1,1.344.633.21.21,0,0,0,.094.047c.024.1.111.15.173.217a2.809,2.809,0,0,1,.758,1.65,2.829,2.829,0,0,1-.687,2.2,2.805,2.805,0,0,1-1.8.971.187.187,0,0,0-.139.059h-.039a.523.523,0,0,0-.428,0h-.039a.161.161,0,0,0-.119-.056,2.87,2.87,0,0,1-1.479-.638.357.357,0,0,0-.488-.036L8.055,7.207Q6.99,7.8,5.926,8.4a.229.229,0,0,0-.112.1.144.144,0,0,0-.057.137c.005.34-.018.681.018,1.02a.355.355,0,0,0,.194.293q1.348.747,2.693,1.5l2.812,1.565c.1.057.2.112.3.172a.453.453,0,0,0,.558-.058,2.9,2.9,0,0,1,.964-.513,3.2,3.2,0,0,1,.379-.086.183.183,0,0,0,.128-.06h.039a1.894,1.894,0,0,0,.584,0h.039a.2.2,0,0,0,.148.063,2.855,2.855,0,0,1,1.289.56,2.781,2.781,0,0,1,1.084,1.837,2.825,2.825,0,0,1-.833,2.528,2.717,2.717,0,0,1-1.435.751,1.36,1.36,0,0,1-.3.045.138.138,0,0,0-.112.051h-.039a.353.353,0,0,0-.331,0h-.039a.2.2,0,0,0-.141-.056,2.845,2.845,0,0,1-2.479-2.406,6.316,6.316,0,0,1-.006-.815.741.741,0,0,0-.028-.221.349.349,0,0,0-.167-.206l-2.064-1.15L7.009,12.332c-.62-.344-1.242-.686-1.861-1.034a.245.245,0,0,0-.321.031,2.867,2.867,0,0,1-1.525.7,2.9,2.9,0,0,1-2.382-.764,2.785,2.785,0,0,1-.9-1.753A2.922,2.922,0,0,1,.269,7.963,2.744,2.744,0,0,1,2.147,6.379a2.752,2.752,0,0,1,.794-.128,2.753,2.753,0,0,1,.96.185,2.983,2.983,0,0,1,.836.488.4.4,0,0,0,.492.052c.492-.276.985-.549,1.479-.822L9,4.883l1.675-.928c.125-.069.251-.135.375-.206a.4.4,0,0,0,.224-.462,2.813,2.813,0,0,1,.111-1.236A2.826,2.826,0,0,1,13.635.088c.056-.012.118-.011.155-.068h.039C13.894.076,13.95.05,14,0h.078a.229.229,0,0,0,.175,0H14.3a.147.147,0,0,0,.194.019h.019" transform="translate(0 0)" fill="#151514"/>
    </g>
  </g>
</svg>
