<svg id="Group_175" data-name="Group 175" xmlns="http://www.w3.org/2000/svg" xmlns:xlink="http://www.w3.org/1999/xlink" width="43" height="34.219" viewBox="0 0 43 34.219">
  <defs>
    <clipPath id="clip-path">
      <rect id="Rectangle_776" data-name="Rectangle 776" width="43" height="34.219" fill="#4aa3c9"/>
    </clipPath>
  </defs>
  <g id="Group_174" data-name="Group 174" clip-path="url(#clip-path)">
    <path id="Path_293" data-name="Path 293" d="M18.391,84.934c-3.969,0-7.937.009-11.906,0A6.053,6.053,0,0,1,.059,78.847c-.1-2.359-.054-4.726-.007-7.089C.083,70.192.9,69.279,2.107,69.28c1.188,0,1.966.952,1.986,2.526.029,2.229,0,4.459.019,6.689.017,1.676.781,2.492,2.449,2.5,7.937.02,22.035.019,29.972,0a2.267,2.267,0,0,0,2.5-2.5c.047-2.273,0-4.548.026-6.822.015-1.518.72-2.345,1.955-2.371,1.207-.025,1.947.831,1.96,2.352.021,2.453.04,4.906,0,7.358a5.9,5.9,0,0,1-5.983,5.923c-4.147.038-14.454.009-18.6.01" transform="translate(0 -50.725)" fill="#4aa3c9"/>
    <path id="Path_294" data-name="Path 294" d="M54.439,17.48c1.623-1.688,2.987-3.145,4.4-4.559,1.153-1.158,2.284-1.258,3.141-.357a2.262,2.262,0,0,1-.348,3.215q-3.779,3.789-7.582,7.555c-1.241,1.225-2.24,1.24-3.467.03q-3.86-3.806-7.67-7.663c-1.095-1.107-1.193-2.187-.366-3.067.867-.923,2.078-.881,3.178.215,1.411,1.407,2.761,2.877,4.18,4.365a2.044,2.044,0,0,0,.368-1.648c.014-6.113,0-6.869.014-12.982,0-1.69.782-2.647,2.03-2.579S54.2.808,54.2,2.278c.018,4.6.006,3.835.009,8.431a58.81,58.81,0,0,0,.228,6.77" transform="translate(-30.747 -0.001)" fill="#4aa3c9"/>
  </g>
</svg>
